<svg xmlns="http://www.w3.org/2000/svg" viewBox="0 0 16.55 15.75"><title>Duplicates</title><g id="Layer_2" data-name="Layer 2"><g id="Layer_1-2" data-name="Layer 1"><path d="M4.67,12.55h7.88V11.2h-8V2.4H3.2v8.68A1.47,1.47,0,0,0,4.67,12.55Z" style="fill:#d7d7d8"/><path d="M1.47,15.75H9.35V14.4h-8V5.6H0v8.68A1.47,1.47,0,0,0,1.47,15.75Z" style="fill:#d7d7d8"/><path d="M15.07,0H7.88A1.47,1.47,0,0,0,6.4,1.47V7.88A1.47,1.47,0,0,0,7.88,9.35h7.19a1.47,1.47,0,0,0,1.48-1.47V1.47A1.47,1.47,0,0,0,15.07,0ZM7.75,8V1.35H15.2V8Z" style="fill:#d7d7d8"/></g></g></svg>